<svg xmlns="http://www.w3.org/2000/svg" viewBox="0 0 100 100">
  <defs>
    <clipPath id="circleView">
        <circle cx="50" cy="50" r="50" />
    </clipPath>
  </defs>

  <g clip-path="url(#circleView)">
    <!-- Background -->
    <rect width="100" height="100" fill="#f0f0f0"/>

    <!-- Body/Suit -->
    <path d="M10 100 L 90 100 L 90 85 C 90 70 50 70 50 70 C 50 70 10 70 10 85 Z" fill="#2c3e50"/>

    <!-- Shirt -->
    <path d="M50 70 L 40 85 L 60 85 Z" fill="#ffffff"/>
    <path d="M40 85 L 50 100 L 60 85 Z" fill="#ffffff"/>

    <!-- Neck -->
    <rect x="42" y="60" width="16" height="15" fill="#dca876"/>

    <!-- Head shape -->
    <ellipse cx="50" cy="45" rx="20" ry="24" fill="#dca876"/>

    <!-- Beard -->
    <path d="M30 45 Q 30 65 50 68 Q 70 65 70 45 L 70 40 L 68 40 L 68 50 Q 68 60 50 63 Q 32 60 32 50 L 32 40 L 30 40 Z" fill="#1a1a1a" opacity="0.9"/>

    <!-- Hair -->
    <path d="M28 35 Q 25 15 50 12 Q 75 15 72 35 Q 72 25 50 20 Q 28 25 28 35 Z" fill="#1a1a1a"/>

    <!-- Eyes -->
    <circle cx="43" cy="42" r="2" fill="#000"/>
    <circle cx="57" cy="42" r="2" fill="#000"/>

    <!-- Smile -->
    <path d="M42 53 Q 50 58 58 53" fill="none" stroke="#000" stroke-width="1.5" stroke-linecap="round"/>
  </g>
</svg>